<svg width="50" height="65" viewBox="0 0 50 65" fill="none" xmlns="http://www.w3.org/2000/svg">
<path d="M0 7C0 4.79086 1.79086 3 4 3H46C48.2091 3 50 4.79086 50 7V53C50 55.2091 48.2091 57 46 57H34.6569C33.596 57 32.5786 57.4214 31.8284 58.1716L27.8284 62.1716C26.2663 63.7337 23.7337 63.7337 22.1716 62.1716L18.1716 58.1716C17.4214 57.4214 16.404 57 15.3431 57H4C1.79086 57 0 55.2091 0 53V7Z" fill="#F6C84E"/>
<path d="M13.288 48.384C12.872 48.384 12.504 48.32 12.184 48.192C11.864 48.064 11.592 47.872 11.368 47.616C11.144 47.328 10.968 46.992 10.84 46.608C10.744 46.224 10.696 45.776 10.696 45.264V16.704C10.696 15.776 10.936 15.056 11.416 14.544C11.928 14.032 12.648 13.776 13.576 13.776C14.504 13.776 15.208 14.032 15.688 14.544C16.168 15.056 16.408 15.776 16.408 16.704V39.408H15.304L33.544 15.552C34.024 14.912 34.488 14.464 34.936 14.208C35.384 13.92 35.976 13.776 36.712 13.776C37.224 13.776 37.656 13.888 38.008 14.112C38.392 14.336 38.68 14.672 38.872 15.12C39.096 15.536 39.208 16.032 39.208 16.608V45.408C39.208 46.368 38.968 47.104 38.488 47.616C38.008 48.128 37.304 48.384 36.376 48.384C35.448 48.384 34.728 48.128 34.216 47.616C33.736 47.104 33.496 46.368 33.496 45.408V22.704H34.552L16.36 46.56C15.848 47.2 15.384 47.664 14.968 47.952C14.584 48.24 14.024 48.384 13.288 48.384Z" fill="white"/>
</svg>
